<?xml version="1.0" encoding="UTF-8"?>
<svg xmlns="http://www.w3.org/2000/svg" version="1.1" width="299" height="299" viewBox="0 0 299 299"><rect x="0" y="0" width="299" height="299" fill="#ffffff"/><g transform="scale(14.238)"><g transform="translate(0,0)"><path fill-rule="evenodd" d="M8 0L8 4L9 4L9 5L8 5L8 7L9 7L9 5L10 5L10 7L11 7L11 5L12 5L12 7L13 7L13 2L12 2L12 1L13 1L13 0L12 0L12 1L11 1L11 2L10 2L10 1L9 1L9 0ZM9 3L9 4L10 4L10 3ZM11 3L11 4L12 4L12 3ZM0 8L0 9L1 9L1 11L0 11L0 13L2 13L2 11L3 11L3 13L4 13L4 11L5 11L5 12L6 12L6 13L7 13L7 12L6 12L6 11L8 11L8 14L9 14L9 15L8 15L8 17L9 17L9 18L10 18L10 19L8 19L8 21L12 21L12 20L13 20L13 19L14 19L14 18L15 18L15 17L16 17L16 21L17 21L17 18L18 18L18 19L19 19L19 18L21 18L21 17L20 17L20 16L17 16L17 15L20 15L20 12L19 12L19 13L18 13L18 14L17 14L17 12L16 12L16 11L17 11L17 10L19 10L19 11L20 11L20 10L19 10L19 9L21 9L21 8L17 8L17 9L16 9L16 8L15 8L15 9L14 9L14 10L13 10L13 8L12 8L12 11L11 11L11 9L9 9L9 10L10 10L10 11L8 11L8 10L6 10L6 11L5 11L5 10L4 10L4 11L3 11L3 10L2 10L2 8ZM4 8L4 9L7 9L7 8ZM14 10L14 11L13 11L13 12L12 12L12 13L13 13L13 14L12 14L12 15L11 15L11 14L10 14L10 15L9 15L9 17L10 17L10 15L11 15L11 19L10 19L10 20L11 20L11 19L12 19L12 16L13 16L13 15L14 15L14 14L15 14L15 13L16 13L16 12L15 12L15 10ZM10 12L10 13L11 13L11 12ZM13 12L13 13L15 13L15 12ZM16 16L16 17L17 17L17 16ZM18 17L18 18L19 18L19 17ZM14 20L14 21L15 21L15 20ZM20 20L20 21L21 21L21 20ZM0 0L0 7L7 7L7 0ZM1 1L1 6L6 6L6 1ZM2 2L2 5L5 5L5 2ZM14 0L14 7L21 7L21 0ZM15 1L15 6L20 6L20 1ZM16 2L16 5L19 5L19 2ZM0 14L0 21L7 21L7 14ZM1 15L1 20L6 20L6 15ZM2 16L2 19L5 19L5 16Z" fill="#000000"/></g></g></svg>
